<svg width="510" height="136" viewBox="0 0 510 136" fill="none" xmlns="http://www.w3.org/2000/svg">
<path fill-rule="evenodd" clip-rule="evenodd" d="M0.999023 61.108H442.499C446.089 61.108 448.999 64.0181 448.999 67.608C448.999 71.1978 446.089 74.108 442.499 74.108H0.999023V74.0372H-0.000976562V74.108V75.108H0.999023H442.499C446.641 75.108 449.999 71.7501 449.999 67.608C449.999 63.4658 446.641 60.108 442.499 60.108H0.999023H-0.000976562V61.108V61.1807H0.999023V61.108Z" fill="black"/>
<path fill-rule="evenodd" clip-rule="evenodd" d="M-0.000976562 67.1079H0.999023H441.999C442.275 67.1079 442.499 67.3318 442.499 67.6079C442.499 67.8841 442.275 68.1079 441.999 68.1079H0.999023H-0.000976562V68.0365H1.00885V67.1794H-0.000976562V67.1079Z" fill="black"/>
<path fill-rule="evenodd" clip-rule="evenodd" d="M1.07731 38.608H442.499C458.515 38.608 471.499 51.5917 471.499 67.608C471.499 83.6242 458.515 96.608 442.499 96.608H1.07731V96.7965H-0.000976562V97.608H0.999023H442.499C459.068 97.608 472.499 84.1765 472.499 67.608C472.499 51.0394 459.068 37.608 442.499 37.608H0.999023H-0.000976562V38.4088H1.07731V38.608Z" fill="black"/>
<path fill-rule="evenodd" clip-rule="evenodd" d="M0.999023 8.60797H442.499C475.084 8.60797 501.499 35.0232 501.499 67.608C501.499 100.193 475.084 126.608 442.499 126.608H0.999023V126.412H-0.000976562V126.608V127.608H0.999023H442.499C475.636 127.608 502.499 100.745 502.499 67.608C502.499 34.4709 475.636 7.60797 442.499 7.60797H0.999023H-0.000976562V8.60797V8.81967H0.999023V8.60797Z" fill="black"/>
<path fill-rule="evenodd" clip-rule="evenodd" d="M1.0954 31.1079H442.5C462.658 31.1079 479 47.4495 479 67.6079C479 87.7663 462.658 104.108 442.5 104.108H1.0954V104.36H0V105.108H1H442.5C463.211 105.108 480 88.3186 480 67.6079C480 46.8972 463.211 30.1079 442.5 30.1079H1H0V30.8653H1.0954V31.1079Z" fill="black"/>
<path fill-rule="evenodd" clip-rule="evenodd" d="M0.999023 16.108H442.499C470.942 16.108 493.999 39.1653 493.999 67.608C493.999 96.0506 470.942 119.108 442.499 119.108H0.999023V119.061H-0.000976562V119.108V120.108H0.999023H442.499C471.494 120.108 494.999 96.6029 494.999 67.608C494.999 38.613 471.494 15.108 442.499 15.108H0.999023H-0.000976562V16.108V16.1683H0.999023V16.108Z" fill="black"/>
<path fill-rule="evenodd" clip-rule="evenodd" d="M1.11154 23.6079H442.499C466.8 23.6079 486.499 43.3074 486.499 67.6079C486.499 91.9084 466.8 111.608 442.499 111.608H1.11154V111.711H-0.000976562V112.608H0.999023H442.499C467.352 112.608 487.499 92.4607 487.499 67.6079C487.499 42.7551 467.352 22.6079 442.499 22.6079H0.999023H-0.000976562V23.5168H1.11154V23.6079Z" fill="black"/>
<path fill-rule="evenodd" clip-rule="evenodd" d="M0.999023 1.10797H442.499C479.226 1.10797 508.999 30.881 508.999 67.608C508.999 104.335 479.226 134.108 442.499 134.108H0.999023V133.762H-0.000976562V134.108V135.108H0.999023H442.499C479.778 135.108 509.999 104.887 509.999 67.608C509.999 30.3288 479.778 0.107971 442.499 0.107971H0.999023H-0.000976562V1.10797V1.47126H0.999023V1.10797Z" fill="black"/>
<path fill-rule="evenodd" clip-rule="evenodd" d="M1.06019 46.108H442.499C454.373 46.108 463.999 55.7338 463.999 67.608C463.999 79.4821 454.373 89.108 442.499 89.108H1.06019V89.3627H-0.000976562V90.108H0.999023H442.499C454.925 90.108 464.999 80.0344 464.999 67.608C464.999 55.1816 454.925 45.108 442.499 45.108H0.999023H-0.000976562V45.8635H1.06019V46.108Z" fill="black"/>
<path fill-rule="evenodd" clip-rule="evenodd" d="M0.999023 53.608H442.499C450.231 53.608 456.499 59.876 456.499 67.608C456.499 75.34 450.231 81.608 442.499 81.608H0.999023V81.5583H-0.000976562V81.608V82.608H0.999023H442.499C450.783 82.608 457.499 75.8922 457.499 67.608C457.499 59.3237 450.783 52.608 442.499 52.608H0.999023H-0.000976562V53.608V53.6509H0.999023V53.608Z" fill="black"/>
</svg>
