<svg width="106" height="211" viewBox="0 0 106 211" fill="none" xmlns="http://www.w3.org/2000/svg">
<path fill-rule="evenodd" clip-rule="evenodd" d="M0.537118 210.526C0.552976 210.526 0.568835 210.526 0.584694 210.526C58.5746 210.526 105.585 163.516 105.585 105.526C105.585 47.5362 58.5746 0.526123 0.584694 0.526123C0.568832 0.526123 0.55297 0.526127 0.537109 0.526134V1.52613C0.55297 1.52613 0.568832 1.52612 0.584694 1.52612C58.0223 1.52612 104.585 48.0885 104.585 105.526C104.585 162.964 58.0223 209.526 0.584694 209.526C0.568835 209.526 0.552976 209.526 0.537118 209.526L0.537118 210.526ZM0.537117 195.526C0.552975 195.526 0.568834 195.526 0.584694 195.526C50.2903 195.526 90.5847 155.232 90.5847 105.526C90.5847 55.8205 50.2903 15.5261 0.584694 15.5261C0.568831 15.5261 0.55297 15.5261 0.537109 15.5261V16.5261C0.55297 16.5261 0.568831 16.5261 0.584694 16.5261C49.738 16.5261 89.5847 56.3728 89.5847 105.526C89.5847 154.679 49.738 194.526 0.584694 194.526C0.568834 194.526 0.552975 194.526 0.537117 194.526L0.537117 195.526ZM0.537116 180.526C0.552974 180.526 0.568833 180.526 0.584694 180.526C42.0061 180.526 75.5847 146.947 75.5847 105.526C75.5847 64.1048 42.0061 30.5261 0.584694 30.5261C0.568831 30.5261 0.55297 30.5261 0.537109 30.5261V31.5261C0.55297 31.5261 0.568831 31.5261 0.584694 31.5261C41.4538 31.5261 74.5847 64.657 74.5847 105.526C74.5847 146.395 41.4538 179.526 0.584694 179.526C0.568833 179.526 0.552974 179.526 0.537116 179.526L0.537116 180.526ZM0.537114 165.526C0.552973 165.526 0.568833 165.526 0.584694 165.526C33.7218 165.526 60.5847 138.663 60.5847 105.526C60.5847 72.389 33.7218 45.5261 0.584694 45.5261C0.568831 45.5261 0.552969 45.5261 0.537109 45.5261V46.5261C0.552969 46.5261 0.568831 46.5261 0.584694 46.5261C33.1695 46.5261 59.5847 72.9413 59.5847 105.526C59.5847 138.111 33.1695 164.526 0.584694 164.526C0.568833 164.526 0.552973 164.526 0.537114 164.526L0.537114 165.526ZM0.537113 150.526C0.552971 150.526 0.568832 150.526 0.584694 150.526C25.4375 150.526 45.5847 130.379 45.5847 105.526C45.5847 80.6733 25.4375 60.5261 0.584694 60.5261C0.56883 60.5261 0.552969 60.5261 0.537109 60.5261V61.5262C0.552969 61.5261 0.56883 61.5261 0.584694 61.5261C24.8852 61.5261 44.5847 81.2256 44.5847 105.526C44.5847 129.827 24.8852 149.526 0.584694 149.526C0.568832 149.526 0.552971 149.526 0.537113 149.526L0.537113 150.526ZM0.537112 135.526C0.55297 135.526 0.56883 135.526 0.584694 135.526C17.1532 135.526 30.5847 122.095 30.5847 105.526C30.5847 88.9576 17.1532 75.5261 0.584694 75.5261C0.56883 75.5261 0.552968 75.5261 0.537109 75.5262V76.5262C0.552968 76.5261 0.568829 76.5261 0.584694 76.5261C16.601 76.5261 29.5847 89.5099 29.5847 105.526C29.5847 121.542 16.601 134.526 0.584694 134.526C0.56883 134.526 0.552969 134.526 0.537112 134.526L0.537112 135.526ZM0.537111 120.526C0.552966 120.526 0.568827 120.526 0.584694 120.526C8.86897 120.526 15.5847 113.81 15.5847 105.526C15.5847 97.2418 8.86897 90.5261 0.584694 90.5261C0.568827 90.5261 0.552965 90.5262 0.537109 90.5262V91.5262C0.552965 91.5261 0.568826 91.5261 0.584694 91.5261C8.31668 91.5261 14.5847 97.7941 14.5847 105.526C14.5847 113.258 8.31668 119.526 0.584694 119.526C0.568827 119.526 0.552965 119.526 0.53711 119.526L0.537111 120.526Z" fill="black"/>
</svg>
