<svg width="510" height="136" viewBox="0 0 510 136" fill="none" xmlns="http://www.w3.org/2000/svg">
<path fill-rule="evenodd" clip-rule="evenodd" d="M0.999023 61.6863H442.499C446.089 61.6863 448.999 64.5964 448.999 68.1863C448.999 71.7761 446.089 74.6863 442.499 74.6863H0.999023V74.6155H-0.000976562V74.6863V75.6863H0.999023H442.499C446.641 75.6863 449.999 72.3284 449.999 68.1863C449.999 64.0441 446.641 60.6863 442.499 60.6863H0.999023H-0.000976562V61.6863V61.759H0.999023V61.6863Z" fill="black"/>
<path fill-rule="evenodd" clip-rule="evenodd" d="M1.0954 31.6863H442.5C462.658 31.6863 479 48.0279 479 68.1863C479 88.3447 462.658 104.686 442.5 104.686H1.0954V104.939H0V105.686H1H442.5C463.211 105.686 480 88.897 480 68.1863C480 47.4756 463.211 30.6863 442.5 30.6863H1H0V31.4436H1.0954V31.6863Z" fill="black"/>
<path fill-rule="evenodd" clip-rule="evenodd" d="M0.999023 16.6863H442.499C470.942 16.6863 493.999 39.7436 493.999 68.1863C493.999 96.6289 470.942 119.686 442.499 119.686H0.999023V119.64H-0.000976562V119.686V120.686H0.999023H442.499C471.494 120.686 494.999 97.1812 494.999 68.1863C494.999 39.1913 471.494 15.6863 442.499 15.6863H0.999023H-0.000976562V16.6863V16.7466H0.999023V16.6863Z" fill="black"/>
<path fill-rule="evenodd" clip-rule="evenodd" d="M0.999023 1.68628H442.499C479.226 1.68628 508.999 31.4593 508.999 68.1863C508.999 104.913 479.226 134.686 442.499 134.686H0.999023V134.341H-0.000976562V134.686V135.686H0.999023H442.499C479.778 135.686 509.999 105.465 509.999 68.1863C509.999 30.9071 479.778 0.686279 442.499 0.686279H0.999023H-0.000976562V1.68628V2.04957H0.999023V1.68628Z" fill="black"/>
<path fill-rule="evenodd" clip-rule="evenodd" d="M1.06019 46.6863H442.499C454.373 46.6863 463.999 56.3122 463.999 68.1863C463.999 80.0604 454.373 89.6863 442.499 89.6863H1.06019V89.941H-0.000976562V90.6863H0.999023H442.499C454.925 90.6863 464.999 80.6127 464.999 68.1863C464.999 55.7599 454.925 45.6863 442.499 45.6863H0.999023H-0.000976562V46.4418H1.06019V46.6863Z" fill="black"/>
</svg>
