<svg width="107" height="211" viewBox="0 0 107 211" fill="none" xmlns="http://www.w3.org/2000/svg">
<path fill-rule="evenodd" clip-rule="evenodd" d="M0.956064 210.526C0.971921 210.526 0.98778 210.526 1.00364 210.526C58.9935 210.526 106.004 163.516 106.004 105.526C106.004 47.5362 58.9935 0.526123 1.00364 0.526123C0.987777 0.526123 0.971915 0.526127 0.956055 0.526134V1.52613C0.971915 1.52613 0.987777 1.52612 1.00364 1.52612C58.4413 1.52612 105.004 48.0885 105.004 105.526C105.004 162.964 58.4413 209.526 1.00364 209.526C0.98778 209.526 0.971921 209.526 0.956064 209.526L0.956064 210.526ZM0.956063 203.026C0.971921 203.026 0.98778 203.026 1.00364 203.026C54.8514 203.026 98.5036 159.374 98.5036 105.526C98.5036 51.6784 54.8514 8.02612 1.00364 8.02612C0.987777 8.02612 0.971915 8.02613 0.956055 8.02613V9.02613C0.971915 9.02613 0.987777 9.02612 1.00364 9.02612C54.2991 9.02612 97.5036 52.2306 97.5036 105.526C97.5036 158.822 54.2991 202.026 1.00364 202.026C0.98778 202.026 0.971921 202.026 0.956063 202.026L0.956063 203.026ZM0.956062 195.526C0.97192 195.526 0.987779 195.526 1.00364 195.526C50.7093 195.526 91.0036 155.232 91.0036 105.526C91.0036 55.8205 50.7093 15.5261 1.00364 15.5261C0.987777 15.5261 0.971915 15.5261 0.956055 15.5261V16.5261C0.971915 16.5261 0.987777 16.5261 1.00364 16.5261C50.157 16.5261 90.0036 56.3728 90.0036 105.526C90.0036 154.679 50.157 194.526 1.00364 194.526C0.987779 194.526 0.97192 194.526 0.956062 194.526L0.956062 195.526ZM0.956062 188.026C0.97192 188.026 0.987779 188.026 1.00364 188.026C46.5671 188.026 83.5036 151.09 83.5036 105.526C83.5036 59.9626 46.5671 23.0261 1.00364 23.0261C0.987777 23.0261 0.971915 23.0261 0.956055 23.0261V24.0261C0.971915 24.0261 0.987777 24.0261 1.00364 24.0261C46.0148 24.0261 82.5036 60.5149 82.5036 105.526C82.5036 150.537 46.0148 187.026 1.00364 187.026C0.987779 187.026 0.97192 187.026 0.956062 187.026L0.956062 188.026ZM0.956061 180.526C0.971919 180.526 0.987779 180.526 1.00364 180.526C42.425 180.526 76.0036 146.947 76.0036 105.526C76.0036 64.1048 42.425 30.5261 1.00364 30.5261C0.987777 30.5261 0.971915 30.5261 0.956055 30.5261V31.5261C0.971915 31.5261 0.987777 31.5261 1.00364 31.5261C41.8727 31.5261 75.0036 64.657 75.0036 105.526C75.0036 146.395 41.8727 179.526 1.00364 179.526C0.987779 179.526 0.971919 179.526 0.956061 179.526L0.956061 180.526ZM0.95606 173.026C0.971919 173.026 0.987778 173.026 1.00364 173.026C38.2829 173.026 68.5036 142.805 68.5036 105.526C68.5036 68.2469 38.2829 38.0261 1.00364 38.0261C0.987776 38.0261 0.971915 38.0261 0.956055 38.0261V39.0261C0.971915 39.0261 0.987776 39.0261 1.00364 39.0261C37.7306 39.0261 67.5036 68.7992 67.5036 105.526C67.5036 142.253 37.7306 172.026 1.00364 172.026C0.987778 172.026 0.971919 172.026 0.95606 172.026L0.95606 173.026ZM0.95606 165.526C0.971918 165.526 0.987778 165.526 1.00364 165.526C34.1407 165.526 61.0036 138.663 61.0036 105.526C61.0036 72.389 34.1407 45.5261 1.00364 45.5261C0.987776 45.5261 0.971915 45.5261 0.956055 45.5261V46.5261C0.971915 46.5261 0.987776 46.5261 1.00364 46.5261C33.5884 46.5261 60.0036 72.9413 60.0036 105.526C60.0036 138.111 33.5884 164.526 1.00364 164.526C0.987778 164.526 0.971918 164.526 0.95606 164.526L0.95606 165.526ZM0.956059 158.026C0.971917 158.026 0.987778 158.026 1.00364 158.026C29.9986 158.026 53.5036 134.521 53.5036 105.526C53.5036 76.5312 29.9986 53.0261 1.00364 53.0261C0.987776 53.0261 0.971915 53.0261 0.956055 53.0261V54.0261C0.971915 54.0261 0.987776 54.0261 1.00364 54.0261C29.4463 54.0261 52.5036 77.0835 52.5036 105.526C52.5036 133.969 29.4463 157.026 1.00364 157.026C0.987777 157.026 0.971917 157.026 0.956059 157.026L0.956059 158.026ZM0.956058 150.526C0.971917 150.526 0.987777 150.526 1.00364 150.526C25.8565 150.526 46.0036 130.379 46.0036 105.526C46.0036 80.6733 25.8565 60.5261 1.00364 60.5261C0.987776 60.5261 0.971914 60.5261 0.956055 60.5261V61.5262C0.971914 61.5261 0.987776 61.5261 1.00364 61.5261C25.3042 61.5261 45.0036 81.2256 45.0036 105.526C45.0036 129.827 25.3042 149.526 1.00364 149.526C0.987777 149.526 0.971917 149.526 0.956058 149.526L0.956058 150.526ZM0.956058 143.026C0.971916 143.026 0.987776 143.026 1.00364 143.026C21.7143 143.026 38.5036 126.237 38.5036 105.526C38.5036 84.8154 21.7143 68.0261 1.00364 68.0261C0.987775 68.0261 0.971914 68.0261 0.956055 68.0262V69.0262C0.971914 69.0261 0.987775 69.0261 1.00364 69.0261C21.162 69.0261 37.5036 85.3677 37.5036 105.526C37.5036 125.685 21.162 142.026 1.00364 142.026C0.987776 142.026 0.971916 142.026 0.956058 142.026L0.956058 143.026ZM0.956057 135.526C0.971915 135.526 0.987776 135.526 1.00364 135.526C17.5722 135.526 31.0036 122.095 31.0036 105.526C31.0036 88.9576 17.5722 75.5261 1.00364 75.5261C0.987775 75.5261 0.971913 75.5261 0.956055 75.5262V76.5262C0.971913 76.5261 0.987775 76.5261 1.00364 76.5261C17.0199 76.5261 30.0036 89.5099 30.0036 105.526C30.0036 121.542 17.0199 134.526 1.00364 134.526C0.987776 134.526 0.971915 134.526 0.956057 134.526L0.956057 135.526ZM0.956056 128.026C0.971914 128.026 0.987774 128.026 1.00364 128.026C13.43 128.026 23.5036 117.953 23.5036 105.526C23.5036 93.0997 13.43 83.0261 1.00364 83.0261C0.987774 83.0261 0.971912 83.0261 0.956055 83.0262V84.0262C0.971912 84.0261 0.987774 84.0261 1.00364 84.0261C12.8778 84.0261 22.5036 93.652 22.5036 105.526C22.5036 117.4 12.8778 127.026 1.00364 127.026C0.987774 127.026 0.971913 127.026 0.956056 127.026L0.956056 128.026ZM0.956056 120.526C0.971911 120.526 0.987772 120.526 1.00364 120.526C9.28791 120.526 16.0036 113.81 16.0036 105.526C16.0036 97.2418 9.28791 90.5261 1.00364 90.5261C0.987772 90.5261 0.97191 90.5262 0.956055 90.5262V91.5262C0.97191 91.5261 0.987772 91.5261 1.00364 91.5261C8.73563 91.5261 15.0036 97.7941 15.0036 105.526C15.0036 113.258 8.73563 119.526 1.00364 119.526C0.987772 119.526 0.971911 119.526 0.956056 119.526L0.956056 120.526ZM0.956055 113.026C0.971905 113.026 0.987766 113.026 1.00364 113.026C5.14577 113.026 8.50364 109.668 8.50364 105.526C8.50364 101.384 5.14577 98.0261 1.00364 98.0261C0.987766 98.0261 0.971905 98.0262 0.956055 98.0263V99.0263C0.971903 99.0262 0.987764 99.0261 1.00364 99.0261C4.59349 99.0261 7.50364 101.936 7.50364 105.526C7.50364 109.116 4.59349 112.026 1.00364 112.026C0.987764 112.026 0.971903 112.026 0.956055 112.026L0.956055 113.026Z" fill="black"/>
</svg>
